<svg width="3379" height="623" viewBox="0 0 3379 623" fill="none" xmlns="http://www.w3.org/2000/svg">
<path d="M93.0046 231.52C102.292 221.057 143.895 182.699 167.993 160.652C177.616 151.847 192.469 152.523 201.192 162.096L236.162 200.478C244.587 209.725 244.238 224.02 234.929 232.508C184.957 278.076 140.149 304.048 192.051 361.015C232.323 405.215 308.524 488.851 341.414 524.95C350.149 534.538 349.355 549.389 339.699 558.186L293.276 600.483C283.62 609.28 268.711 608.64 259.976 599.052L78.42 399.782C35.1711 344.07 47.184 283.183 93.0046 231.52Z" fill="black"/>
<path d="M93.0046 231.52C102.292 221.057 143.895 182.699 167.993 160.652C177.616 151.847 192.469 152.523 201.192 162.096L236.162 200.478C244.587 209.725 244.238 224.02 234.929 232.508C184.957 278.076 140.149 304.048 192.051 361.015C232.323 405.215 308.524 488.851 341.414 524.95C350.149 534.538 349.355 549.389 339.699 558.186L293.276 600.483C283.62 609.28 268.711 608.64 259.976 599.052L78.42 399.782C35.1711 344.07 47.184 283.183 93.0046 231.52Z" fill="url(#paint0_linear_628_795)"/>
<path d="M93.0046 231.52C102.292 221.057 143.895 182.699 167.993 160.652C177.616 151.847 192.469 152.523 201.192 162.096L236.162 200.478C244.587 209.725 244.238 224.02 234.929 232.508C184.957 278.076 140.149 304.048 192.051 361.015C232.323 405.215 308.524 488.851 341.414 524.95C350.149 534.538 349.355 549.389 339.699 558.186L293.276 600.483C283.62 609.28 268.711 608.64 259.976 599.052L78.42 399.782C35.1711 344.07 47.184 283.183 93.0046 231.52Z" fill="black"/>
<path d="M93.0046 231.52C102.292 221.057 143.895 182.699 167.993 160.652C177.616 151.847 192.469 152.523 201.192 162.096L236.162 200.478C244.587 209.725 244.238 224.02 234.929 232.508C184.957 278.076 140.149 304.048 192.051 361.015C232.323 405.215 308.524 488.851 341.414 524.95C350.149 534.538 349.355 549.389 339.699 558.186L293.276 600.483C283.62 609.28 268.711 608.64 259.976 599.052L78.42 399.782C35.1711 344.07 47.184 283.183 93.0046 231.52Z" fill="url(#paint1_linear_628_795)"/>
<path d="M441.45 385.168C432.163 395.63 390.56 433.988 366.462 456.036C356.839 464.84 341.986 464.165 333.263 454.591L298.293 416.209C289.868 406.962 290.217 392.667 299.526 384.179C349.498 338.612 394.306 312.639 342.404 255.672C302.132 211.472 225.932 127.837 193.041 91.7372C184.306 82.1494 185.1 67.2986 194.756 58.5013L241.179 16.2045C250.835 7.40717 265.744 8.04795 274.479 17.6357L456.035 216.906C499.284 272.617 487.271 333.504 441.45 385.168Z" fill="black"/>
<path d="M441.45 385.168C432.163 395.63 390.56 433.988 366.462 456.036C356.839 464.84 341.986 464.165 333.263 454.591L298.293 416.209C289.868 406.962 290.217 392.667 299.526 384.179C349.498 338.612 394.306 312.639 342.404 255.672C302.132 211.472 225.932 127.837 193.041 91.7372C184.306 82.1494 185.1 67.2986 194.756 58.5013L241.179 16.2045C250.835 7.40717 265.744 8.04795 274.479 17.6357L456.035 216.906C499.284 272.617 487.271 333.504 441.45 385.168Z" fill="url(#paint2_linear_628_795)"/>
<path d="M441.45 385.168C432.163 395.63 390.56 433.988 366.462 456.036C356.839 464.84 341.986 464.165 333.263 454.591L298.293 416.209C289.868 406.962 290.217 392.667 299.526 384.179C349.498 338.612 394.306 312.639 342.404 255.672C302.132 211.472 225.932 127.837 193.041 91.7372C184.306 82.1494 185.1 67.2986 194.756 58.5013L241.179 16.2045C250.835 7.40717 265.744 8.04795 274.479 17.6357L456.035 216.906C499.284 272.617 487.271 333.504 441.45 385.168Z" fill="black"/>
<path d="M441.45 385.168C432.163 395.63 390.56 433.988 366.462 456.036C356.839 464.84 341.986 464.165 333.263 454.591L298.293 416.209C289.868 406.962 290.217 392.667 299.526 384.179C349.498 338.612 394.306 312.639 342.404 255.672C302.132 211.472 225.932 127.837 193.041 91.7372C184.306 82.1494 185.1 67.2986 194.756 58.5013L241.179 16.2045C250.835 7.40717 265.744 8.04795 274.479 17.6357L456.035 216.906C499.284 272.617 487.271 333.504 441.45 385.168Z" fill="url(#paint3_linear_628_795)"/>
<path d="M1674.01 189.61C1675.27 190.551 1677.06 189.642 1677.06 188.059V169.294C1677.06 163.002 1682.13 157.902 1688.38 157.902H1740.01C1750.32 157.902 1758.68 166.316 1758.68 176.696V469.048C1749.42 590.71 1633.21 638.34 1520.75 618.732C1494.77 612.435 1465.39 592.88 1448.87 580.695C1441.24 575.069 1439.64 564.507 1444.79 556.524L1466.31 523.203C1471.68 514.88 1482.55 512.192 1491.24 516.887C1504.03 523.801 1521.92 533.093 1533.23 537.376C1611.06 566.86 1685.96 516.738 1676.71 430.273C1676.61 429.308 1675.39 428.94 1674.79 429.702C1669.08 436.976 1659.31 448.86 1653.78 454.552C1597.73 512.274 1486.37 486.664 1442.4 419.323C1411.14 371.442 1406.65 302.35 1427.03 249.181C1465.04 150.009 1599.5 103.243 1673.69 189.319C1673.79 189.426 1673.89 189.526 1674.01 189.61ZM1564.48 230.181C1533.78 235.959 1506.48 275.651 1503.16 306.01C1488.58 439.361 1676.23 426.078 1676.23 315.302C1674.79 252.689 1623.28 219.127 1564.48 230.181Z" fill="black"/>
<path d="M3144.72 344.089C3150.66 403.97 3194.31 414.702 3246.88 408.467C3310.54 390.873 3300.77 373.789 3327.17 392.38C3370.7 421.418 3382.53 428.666 3334.45 461.539C3196.9 546.726 3013.9 444.575 3057.41 271.472C3102.82 90.7834 3362.7 109.289 3378.13 297.794C3379.16 310.375 3381.63 338.453 3368.32 344.089L3144.72 344.987V344.089ZM3294.08 282.465C3291.62 200.507 3156.62 202.922 3148.89 282.465H3294.08Z" fill="black"/>
<path d="M2115.09 344.089C2121.02 403.97 2164.67 414.702 2217.24 408.467C2280.9 390.873 2271.13 373.789 2297.53 392.38C2341.06 421.418 2352.89 428.666 2304.81 461.539C2167.26 546.726 1984.26 444.575 2027.77 271.472C2073.19 90.7834 2333.06 109.289 2348.49 297.794C2349.52 310.375 2351.99 338.453 2338.68 344.089L2115.09 344.987V344.089ZM2264.44 282.465C2261.98 200.507 2126.99 202.922 2119.25 282.465H2264.44Z" fill="black"/>
<path d="M1292.99 298.72C1291.95 286.628 1289.05 271.174 1283.33 260.522C1254.18 206.216 1170.64 227.896 1159.91 259.453C1159.25 261.415 1158.56 263.373 1157.78 265.291C1150.54 283.059 1151.92 325.641 1151.92 325.641V459.572C1151.92 469.952 1143.56 478.366 1133.25 478.366H1087.29C1076.98 478.366 1068.62 469.952 1068.62 459.572V175.143C1068.62 164.763 1076.98 156.349 1087.29 156.349H1133.25C1143.56 156.349 1151.92 164.763 1151.92 175.143V190.518C1151.92 192.807 1155.46 193.586 1156.58 191.594C1169.47 168.709 1194.14 150.934 1224.18 149.221C1301.88 141.305 1367.19 182.56 1374.76 265.434L1374.25 459.622C1374.22 469.982 1365.87 478.366 1355.58 478.366H1311.66C1301.35 478.366 1292.99 469.952 1292.99 459.572V298.72Z" fill="black"/>
<path d="M2612.94 298.72C2611.9 286.628 2609 271.174 2603.28 260.522C2574.13 206.216 2490.59 227.896 2479.87 259.453C2479.2 261.415 2478.52 263.373 2477.73 265.291C2470.5 283.059 2471.88 325.641 2471.88 325.641V459.572C2471.88 469.952 2463.52 478.366 2453.21 478.366H2407.24C2396.93 478.366 2388.57 469.952 2388.57 459.572V175.143C2388.57 164.763 2396.93 156.349 2407.24 156.349H2453.21C2463.52 156.349 2471.88 164.763 2471.88 175.143V190.518C2471.88 192.807 2475.42 193.586 2476.54 191.594C2489.42 168.709 2514.1 150.934 2544.13 149.221C2621.83 141.305 2687.14 182.56 2694.71 265.434L2694.2 459.622C2694.17 469.982 2685.82 478.366 2675.53 478.366H2631.61C2621.3 478.366 2612.94 469.952 2612.94 459.572V298.72Z" fill="black"/>
<path d="M2871.15 148.977C2922.15 143.111 2975.88 155.719 3014.76 190.288C3042.81 215.207 3043.24 221.066 3015.34 246.188C2967.71 289.064 2983.51 264.551 2929.39 238.717C2883.71 219.43 2831.19 241.095 2819.79 291.135C2801.92 369.487 2860.53 430.352 2936.08 389.463C2947.38 383.346 2969.37 357.067 2981.62 358.24C2993.88 359.414 3048.29 400.71 3038.27 417.024C3025.16 448.857 2941.54 491.216 2904.34 492.139C2685.44 497.551 2667.76 172.378 2871.15 148.977Z" fill="black"/>
<path d="M1846.88 109.018C1846.89 31.0679 1906.77 0.000126287 1984.22 0.000177199L2005.5 6.57215e-10C2015.8 -8.58578e-05 2024.16 8.41225 2024.16 18.7907L2024.17 64.7002C2024.17 75.0813 2015.82 83.4979 2005.51 83.4979C1990.5 83.4979 1970.68 83.4979 1962.82 83.4979C1925.79 83.4979 1933.09 146.437 1933.92 155.314C1933.97 155.904 1934.47 156.35 1935.05 156.35H1996.08C2006.39 156.35 2014.75 164.764 2014.75 175.144V214.695C2014.75 225.074 2006.39 233.489 1996.08 233.489H1935.05C1933.91 233.489 1932.99 234.416 1932.99 235.559V459.573C1932.99 469.953 1924.63 478.367 1914.33 478.367H1865.55C1855.24 478.367 1846.88 469.953 1846.88 459.573V235.559C1846.88 234.416 1845.96 233.489 1844.82 233.489H1809.22C1798.92 233.489 1790.56 225.074 1790.56 214.695V175.144C1790.56 164.764 1798.92 156.35 1809.23 156.35H1846.36C1846.65 156.35 1846.88 156.118 1846.88 155.831C1846.88 151.68 1846.91 123.594 1846.88 109.018Z" fill="black"/>
<path d="M780.917 152.168C791.897 150.985 836.558 150.716 862.336 150.662C872.63 150.64 880.936 159.045 880.936 169.41V210.962C880.936 220.972 873.134 229.241 863.192 229.245C809.816 229.267 769.869 220.481 769.869 282.153C769.869 330.005 769.869 420.549 769.869 459.63C769.869 470.01 761.512 478.367 751.202 478.367H701.635C691.326 478.367 682.969 469.952 682.969 459.572L682.969 243.843C687.35 187.577 726.723 158.034 780.917 152.168Z" fill="black"/>
<path d="M921.044 175.143C921.044 164.764 929.401 156.349 939.711 156.349H986.706C997.016 156.349 1005.37 164.764 1005.37 175.143V459.573C1005.37 469.952 997.016 478.367 986.706 478.367H939.711C929.401 478.367 921.044 469.952 921.044 459.573V175.143Z" fill="black"/>
<path d="M1016.69 54.8774C1016.69 84.0418 993.203 107.684 964.237 107.684C935.27 107.684 911.788 84.0418 911.788 54.8774C911.788 25.7131 935.27 2.0707 964.237 2.0707C993.203 2.0707 1016.69 25.7131 1016.69 54.8774Z" fill="black"/>
<path d="M780.917 152.168C791.897 150.985 836.558 150.716 862.336 150.662C872.63 150.64 880.936 159.045 880.936 169.41V210.962C880.936 220.972 873.134 229.241 863.192 229.245C809.816 229.267 769.869 220.481 769.869 282.153C769.869 330.005 769.869 420.549 769.869 459.63C769.869 470.01 761.512 478.367 751.202 478.367H701.635C691.326 478.367 682.969 469.952 682.969 459.572L682.969 243.843C687.35 187.577 726.723 158.034 780.917 152.168Z" fill="black"/>
<defs>
<linearGradient id="paint0_linear_628_795" x1="61.6688" y1="236.394" x2="349.456" y2="565.294" gradientUnits="userSpaceOnUse">
<stop/>
<stop offset="1"/>
</linearGradient>
<linearGradient id="paint1_linear_628_795" x1="61.6688" y1="236.394" x2="349.456" y2="565.294" gradientUnits="userSpaceOnUse">
<stop/>
<stop offset="1"/>
</linearGradient>
<linearGradient id="paint2_linear_628_795" x1="472.786" y1="431.682" x2="366.799" y2="486.098" gradientUnits="userSpaceOnUse">
<stop/>
<stop offset="1"/>
</linearGradient>
<linearGradient id="paint3_linear_628_795" x1="472.786" y1="431.682" x2="366.799" y2="486.098" gradientUnits="userSpaceOnUse">
<stop/>
<stop offset="1"/>
</linearGradient>
</defs>
</svg>
