<svg width="32" height="32" viewBox="0 0 640 660" fill="none" xmlns="http://www.w3.org/2000/svg">
    <g transform="translate(40, 20) scale(1.05)">
        <path d="M93.0046 231.52C102.292 221.057 143.895 182.699 167.993 160.652C177.616 151.847 192.469 152.523 201.192 162.096L236.162 200.478C244.587 209.725 244.238 224.02 234.929 232.508C184.957 278.076 140.149 304.048 192.051 361.015C232.323 405.215 308.524 488.851 341.414 524.95C350.149 534.538 349.355 549.389 339.699 558.186L293.276 600.483C283.62 609.28 268.711 608.64 259.976 599.052L78.42 399.782C35.1711 344.07 47.184 283.183 93.0046 231.52Z" fill="white"/>
        <path d="M441.45 385.168C432.163 395.63 390.56 433.988 366.462 456.036C356.839 464.84 341.986 464.165 333.263 454.591L298.293 416.209C289.868 406.962 290.217 392.667 299.526 384.179C349.498 338.612 394.306 312.639 342.404 255.672C302.132 211.472 225.932 127.837 193.041 91.7372C184.306 82.1494 185.1 67.2986 194.756 58.5013L241.179 16.2045C250.835 7.40717 265.744 8.04795 274.479 17.6357L456.035 216.906C499.284 272.617 487.271 333.504 441.45 385.168Z" fill="white"/>
    </g>
</svg>
